<svg height="512pt" viewBox="0 -31 512 512" width="512pt" xmlns="http://www.w3.org/2000/svg"><path d="m0 120h30v330h452v-330h30v-120h-512zm452 300h-392v-300h392zm-422-390h452v60h-452zm0 0"/><path d="m196 240h120c24.8125 0 45-20.1875 45-45s-20.1875-45-45-45h-120c-24.8125 0-45 20.1875-45 45s20.1875 45 45 45zm0-60h120c8.269531 0 15 6.730469 15 15s-6.730469 15-15 15h-120c-8.269531 0-15-6.730469-15-15s6.730469-15 15-15zm0 0"/><path d="m90 300h121v30h-121zm0 0"/><path d="m90 360h121v30h-121zm0 0"/></svg>