<svg height="512" viewBox="0 0 68 54" width="512" xmlns="http://www.w3.org/2000/svg" fill="currentColor">
  <path
    d="m710 945v-28h-42c-1.104569 0-2-.895431-2-2s.895431-2 2-2h44c1.104569 0 2 .895431 2 2v30c0 1.104569-.895431 2-2 2s-2-.895431-2-2zm10-10v-28h-42c-1.104569 0-2-.895431-2-2s.895431-2 2-2h44c1.104569 0 2 .895431 2 2v30c0 1.104569-.895431 2-2 2s-2-.895431-2-2zm-62-12h44c1.104569 0 2 .895431 2 2v30c0 1.104569-.895431 2-2 2h-44c-1.104569 0-2-.895431-2-2v-30c0-1.104569.895431-2 2-2zm2 30h40v-26h-40z"
    transform="translate(-656 -903)" />
</svg>