<svg height="512pt" viewBox="0 0 512 512" width="512pt" xmlns="http://www.w3.org/2000/svg" fill="currentColor">
  <path d="m476.667969 383.355469c22.992187-39.585938 35.109375-83.515625 35.109375-127.46875 0-140.90625-115-255.886719-255.890625-255.886719-140.90625 0-255.886719 115-255.886719 255.886719 0 140.910156 115 255.890625 255.886719 255.890625 46.128906 0 91.828125-13.175782 132.609375-38.164063l123.503906 38.054688zm-92.625 57.507812c-38.980469 25.304688-78.960938 40.925781-128.15625 40.925781-124.5625 0-225.898438-101.335937-225.898438-225.902343 0-124.5625 101.335938-225.898438 225.898438-225.898438 124.566406 0 225.902343 101.335938 225.902343 225.898438 0 47.332031-14.730468 85.949219-37.457031 122.984375l24.242188 88.039062zm0 0" />
  <path d="m257.203125 90.996094c-.4375-.015625-.875-.035156-1.316406-.035156-.152344 0-.304688.007812-.457031.011718-.316407-.003906-.628907-.011718-.945313-.011718-90.941406 0-164.929687 73.984374-164.929687 164.925781 0 90.941406 73.988281 164.929687 164.929687 164.929687.316406 0 .628906-.007812.945313-.011718.152343.003906.304687.011718.457031.011718.441406 0 .878906-.019531 1.316406-.035156 89.691406-1.457031 162.207031-74.859375 162.207031-164.894531 0-90.03125-72.515625-163.433594-162.207031-164.890625zm118.136719 104.917968h-49.253906c-3.15625-19.003906-7.832032-36.519531-13.867188-51.613281-1.84375-4.609375-3.804688-8.933593-5.863281-12.980469 30.007812 12.542969 54.550781 35.625 68.984375 64.59375zm14.085937 59.972657c0 10.304687-1.167969 20.339843-3.363281 29.988281h-56.363281c.761719-9.792969 1.15625-19.820312 1.15625-29.988281 0-10.164063-.394531-20.191407-1.15625-29.984375h56.363281c2.195312 9.648437 3.363281 19.683594 3.363281 29.984375zm-133.011719 134.917969c-.277343.003906-.550781.007812-.824218.011718-8.875-.296875-19.902344-13.757812-28.1875-34.476562-4.75-11.871094-8.539063-25.765625-11.285156-40.675782h79.542968c-2.746094 14.910157-6.535156 28.804688-11.285156 40.675782-8.21875 20.546875-19.128906 33.953125-27.960938 34.464844zm-44.253906-104.929688c-.820312-9.734375-1.253906-19.765625-1.253906-29.988281 0-10.21875.433594-20.25 1.253906-29.984375h87.457032c.820312 9.734375 1.25 19.765625 1.25 29.984375 0 10.222656-.429688 20.253906-1.25 29.988281zm-92.617187-29.988281c0-10.300781 1.164062-20.539063 3.363281-30.183594h59.175781c-.761719 9.792969-1.160156 20.019531-1.160156 30.183594 0 10.167969.398437 20.195312 1.160156 29.988281h-59.175781c-2.199219-9.648438-3.363281-19.683594-3.363281-29.988281zm136.046875-134.925781c.273437.003906.546875.007812.824218.011718 8.832032.511719 19.742188 13.917969 27.960938 34.464844 4.75 11.871094 8.539062 25.566406 11.285156 40.476562h-79.542968c2.746093-14.910156 6.535156-28.605468 11.285156-40.476562 8.285156-20.71875 19.3125-34.179688 28.1875-34.476562zm-49.4375 8.941406c-2.328125 4.449218-4.53125 9.246094-6.59375 14.398437-6.035156 15.09375-10.707032 32.609375-13.867188 51.613281h-52.0625c14.996094-30.097656 40.90625-53.839843 72.523438-66.011718zm-72.527344 185.960937h52.066406c3.15625 19.003907 7.832032 36.519531 13.867188 51.613281 2.0625 5.152344 4.265625 9.949219 6.59375 14.398438-31.617188-12.171875-57.527344-35.910156-72.527344-66.011719zm172.730469 64.59375c2.058593-4.046875 4.019531-8.371093 5.863281-12.980469 6.035156-15.09375 10.707031-32.808593 13.867188-51.8125h49.253906c-14.433594 28.96875-38.976563 52.25-68.984375 64.792969zm0 0" />
</svg>