<svg enable-background="new 0 0 512 512" height="512" viewBox="0 0 512 512" width="512" xmlns="http://www.w3.org/2000/svg">
  <g>
    <path d="m503.753 308.926c-.459-2.891-2.559-5.25-5.376-6.043-24.065-6.768-48.707-9.114-73.486-7.043 2.705-3.66 5.294-7.393 7.738-11.191 2.242-3.482 1.235-8.123-2.248-10.365-3.48-2.243-8.123-1.235-10.365 2.248-3.739 5.81-7.825 11.47-12.2 16.905-11.388-16.771-19.95-34.911-25.575-54.172l23.849 13.342c2.086 1.167 4.604 1.27 6.778.277l24.863-11.355c-1.243 3.252-2.568 6.459-3.972 9.608-1.686 3.783.015 8.218 3.798 9.903 3.783 1.687 8.217-.014 9.903-3.798 3.954-8.874 7.333-18.171 10.043-27.632.806-2.814-.099-5.841-2.317-7.75-2.219-1.91-5.348-2.354-8.009-1.138l-37.083 16.937-35.577-19.902c-2.558-1.433-5.708-1.242-8.075.48-2.366 1.723-3.516 4.664-2.941 7.535 2.668 13.349 6.582 26.254 11.706 38.654-12.478-7.689-27.431-10.506-42.627-7.615-22.3 4.244-39.61 19.727-46.305 41.417l-3.728 12.078h-4.685c7.825-36.958 22.321-57.796 33.412-68.9 12.432-12.445 23.319-15.62 23.62-15.705 3.98-1.055 6.37-5.126 5.341-9.12-1.033-4.013-5.124-6.431-9.133-5.393-1.712.44-33.903 9.345-55.259 56.422 4.028-47.06 21.217-84.838 37.094-110.546 7.234-11.713 14.7-21.799 21.546-30.135-5.151 16.647-8.167 33.867-9.002 51.509-.139 2.925 1.437 5.662 4.034 7.011 2.597 1.35 5.743 1.064 8.056-.73l32.205-24.996 39.196 11.205c2.813.808 5.841-.102 7.748-2.321 1.909-2.22 2.352-5.347 1.134-8.009-10.858-23.744-25.803-44.844-44.504-62.929 25.458-5.354 49.344-15.26 71.175-29.578 2.447-1.605 3.737-4.488 3.304-7.383-.434-2.896-2.513-5.273-5.323-6.091l-39.146-11.381-13.955-38.304c-1.002-2.75-3.513-4.666-6.43-4.907-2.904-.239-5.709 1.236-7.147 3.787-12.293 21.768-20.426 45.146-24.302 69.707-15.911-19.105-34.873-35.016-56.584-47.412-2.542-1.451-5.695-1.291-8.078.41-2.382 1.701-3.557 4.633-3.008 7.508l7.641 40.045-27.787 29.83c-1.995 2.143-2.562 5.249-1.451 7.958 1.11 2.708 3.695 4.522 6.62 4.647 3.008.128 6.008.192 9.002.192 17.288 0 34.331-2.144 50.986-6.385-8.607 9.825-18.639 22.666-28.382 38.369-21.659 34.909-45.603 90.815-39.569 161.625h-9.833c6.034-70.81-17.91-126.716-39.569-161.625-9.743-15.703-19.774-28.544-28.381-38.369 16.655 4.242 33.697 6.385 50.986 6.385 2.992 0 5.996-.064 9.002-.192 2.925-.125 5.51-1.939 6.62-4.647 1.11-2.709.544-5.815-1.451-7.958l-27.786-29.83 7.641-40.045c.549-2.875-.626-5.807-3.008-7.508-2.38-1.7-5.534-1.861-8.078-.41-21.709 12.395-40.67 28.304-56.58 47.407-1.067-6.763-2.448-13.444-4.15-19.988-1.042-4.008-5.135-6.411-9.146-5.371-4.009 1.043-6.413 5.138-5.371 9.146 2.259 8.684 3.923 17.629 4.971 26.698-19.939-3.655-38.874-10.285-56.543-19.793l26.24-7.629c2.295-.668 4.135-2.389 4.953-4.635l9.352-25.667c.131.288.262.576.392.864 1.701 3.777 6.144 5.459 9.918 3.76 3.777-1.701 5.46-6.142 3.76-9.918-2.656-5.899-5.577-11.677-8.681-17.171-1.44-2.549-4.222-4.017-7.147-3.786-2.917.241-5.428 2.157-6.43 4.907l-13.957 38.305-39.145 11.381c-2.812.817-4.89 3.195-5.323 6.091-.434 2.895.856 5.777 3.304 7.383 21.832 14.318 45.717 24.224 71.176 29.578-18.701 18.084-33.647 39.186-44.505 62.929-1.218 2.662-.775 5.789 1.134 8.009 1.907 2.22 4.933 3.125 7.748 2.321l39.196-11.205 32.205 24.996c2.313 1.795 5.458 2.081 8.056.73 2.598-1.349 4.173-4.086 4.034-7.011-.836-17.643-3.851-34.861-9.002-51.509 6.846 8.336 14.311 18.422 21.545 30.135 15.878 25.708 33.067 63.486 37.095 110.546-21.356-47.077-53.547-55.982-55.259-56.422-4.008-1.034-8.128 1.374-9.161 5.385s1.353 8.093 5.363 9.126c.109.03 11.082 3.149 23.626 15.707 19.278 19.301 28.76 47.004 33.415 68.9h-4.688l-3.728-12.078c-6.694-21.69-24.005-37.173-46.305-41.417-15.194-2.892-30.148-.074-42.627 7.616 5.124-12.4 9.038-25.306 11.706-38.655.574-2.871-.575-5.812-2.941-7.535-2.367-1.721-5.518-1.91-8.075-.48l-35.577 19.902-37.083-16.936c-2.662-1.217-5.791-.772-8.009 1.138-2.219 1.91-3.123 4.936-2.317 7.75 6.884 24.033 17.833 46.232 32.611 66.227-24.779-2.071-49.42.275-73.485 7.044-2.817.793-4.917 3.152-5.376 6.043-.459 2.892.806 5.785 3.239 7.412l33.892 22.655 1.754 40.729c.126 2.925 1.942 5.509 4.651 6.618 2.735 1.122 5.84.52 7.956-1.455 19.096-17.803 34.393-38.651 45.642-62.109 7.329 12.543 15.845 24.174 25.511 34.814-1.719 45.713 10.828 75.892 33.571 108.196h-13.211c-3.881 0-7.48 1.753-9.877 4.809-2.396 3.056-3.238 6.969-2.312 10.739.562 2.282 1.281 4.499 2.138 6.589 5.994 14.626 20.33 24.077 36.521 24.077h111.222c4.143 0 7.5-3.357 7.5-7.5s-3.357-7.5-7.5-7.5h-111.224c-9.923 0-19.021-5.934-22.642-14.767-.193-.472-.377-.954-.55-1.447h202.94c-.173.493-.356.976-.55 1.447-3.619 8.834-12.717 14.768-22.64 14.768h-15.349c-4.143 0-7.5 3.357-7.5 7.5s3.357 7.5 7.5 7.5h15.349c16.19 0 30.526-9.451 36.521-24.077.856-2.09 1.575-4.307 2.138-6.592.926-3.768.083-7.681-2.312-10.736-2.396-3.056-5.996-4.809-9.877-4.809h-13.212c22.74-32.3 35.289-62.489 33.572-108.196 9.666-10.64 18.182-22.271 25.511-34.814 11.249 23.458 26.546 44.306 45.642 62.109 2.148 2.003 5.256 2.561 7.956 1.455 2.709-1.109 4.525-3.693 4.651-6.618l1.754-40.729 33.892-22.655c2.433-1.627 3.697-4.521 3.238-7.412zm-107.236-157.16-26.274-7.511c-2.298-.659-4.771-.18-6.66 1.286l-21.588 16.756c2.685-19.887 8.439-39.102 17.194-57.388 14.934 13.711 27.432 29.401 37.328 46.857zm-15.305-125.499 9.354 25.677c.818 2.246 2.658 3.967 4.953 4.635l26.241 7.629c-17.671 9.508-36.603 16.137-56.544 19.793 2.324-20.141 7.682-39.471 15.996-57.734zm-76.147 55.245c1.629-1.749 2.327-4.17 1.879-6.518l-5.122-26.844c16.498 11.425 31.003 25.28 43.316 41.385-18.999 7.079-38.65 11.086-58.7 11.973zm-94.887-33.362-5.122 26.844c-.448 2.348.25 4.769 1.879 6.518l18.627 19.996c-20.048-.888-39.702-4.895-58.7-11.973 12.313-16.104 26.818-29.96 43.316-41.385zm-61.761 97.392c-1.895-1.471-4.372-1.941-6.66-1.286l-26.274 7.511c9.896-17.456 22.394-33.146 37.328-46.856 8.755 18.286 14.51 37.501 17.194 57.388zm152.19 157.11c5.028-16.29 18.029-27.918 34.777-31.105 16.741-3.181 33.11 2.854 43.771 16.157l4.577 5.712c-22.274-2.954-44.696-2.287-66.944 2.051-2.873.561-5.157 2.741-5.851 5.585s.331 5.831 2.624 7.651l2.019 1.603h-17.337zm-123.991-31.105c16.748 3.188 29.749 14.815 34.777 31.105l2.363 7.654h-17.337l2.019-1.603c2.293-1.82 3.317-4.808 2.624-7.651s-2.978-5.024-5.851-5.585c-22.249-4.338-44.671-5.005-66.944-2.051l4.577-5.712c10.661-13.305 27.028-19.343 43.772-16.157zm-77.483-18.663c2.171.992 4.689.89 6.777-.277l23.849-13.342c-5.625 19.263-14.188 37.402-25.576 54.174-12.719-15.787-22.73-33.168-29.908-51.907zm-37.758 108.966-1.175-27.302c-.103-2.388-1.338-4.584-3.325-5.912l-22.719-15.187c19.713-3.738 39.763-4.352 59.88-1.82-8.289 18.502-19.226 35.316-32.661 50.221zm114.234-54.177-21.406 16.989c-1.872 1.486-2.924 3.775-2.831 6.164l1.054 27.307c-14.605-13.76-26.876-29.627-36.646-47.393 19.842-4.16 39.874-5.184 59.829-3.067zm7.39 158.113c-22.648-30.241-35.792-55.742-37.154-93.347 3.265 2.93 6.621 5.777 10.089 8.518 2.297 1.816 5.438 2.128 8.049.802 2.609-1.326 4.209-4.05 4.096-6.975l-1.572-40.736 11.013-8.741h156.96l11.013 8.741-1.572 40.736c-.113 2.925 1.486 5.648 4.096 6.975s5.752 1.014 8.049-.802c3.469-2.741 6.825-5.589 10.09-8.519-1.363 37.604-14.51 63.11-37.155 93.348zm176.576-107.653 1.054-27.307c.093-2.389-.959-4.678-2.831-6.164l-21.406-16.989c19.954-2.117 39.987-1.091 59.83 3.067-9.771 17.766-22.042 33.633-36.647 47.393zm95.55-29.497c-1.987 1.328-3.223 3.524-3.325 5.912l-1.176 27.303c-13.435-14.905-24.372-31.72-32.66-50.223 20.116-2.527 40.167-1.917 59.88 1.821z" />
  </g>
</svg>