<svg enable-background="new 0 0 511.821 511.821" height="512" viewBox="0 0 511.821 511.821" width="512" xmlns="http://www.w3.org/2000/svg" fill="currentColor">
  <path d="m486.254 194.205c-1.154-5.374-5.155-9.687-10.428-11.239l-56.281-16.58 55.615-30.725c4.811-2.658 7.782-7.734 7.746-13.23-.037-5.496-3.077-10.531-7.923-13.125l-98.501-52.71c-4.846-2.593-10.722-2.329-15.315.69s-7.167 8.307-6.71 13.784l5.444 65.146-50.829-42.485c-4.217-3.525-10.024-4.463-15.136-2.44-5.111 2.021-8.708 6.676-9.374 12.131l-13.54 110.894c-.666 5.456 1.705 10.839 6.18 14.03 4.485 3.2 10.353 3.674 15.278 1.273l52.088-25.368c-13.002 37.617-19.314 76.676-18.818 116.634h-105.7c.749-57.618-13.003-113.962-39.709-165.081l39.002 18.995c4.924 2.4 10.793 1.926 15.278-1.273 4.475-3.191 6.846-8.574 6.18-14.03l-13.541-110.896c-.666-5.455-4.263-10.109-9.374-12.131-5.11-2.021-10.918-1.085-15.135 2.44l-50.83 42.486 5.443-65.146c.458-5.478-2.117-10.766-6.71-13.784-4.592-3.019-10.469-3.284-15.315-.69l-98.501 52.71c-4.846 2.594-7.886 7.629-7.922 13.125-.037 5.496 2.935 10.572 7.746 13.23l55.614 30.725-56.282 16.581c-5.272 1.554-9.273 5.865-10.427 11.239-1.154 5.373.723 10.948 4.893 14.528l84.752 72.787c4.18 3.596 10.005 4.585 15.101 2.642 5.138-1.952 8.796-6.559 9.535-12.005l7.942-58.525c28.521 50.497 42.957 105.616 42.256 162.072h-63.135c-19.881.738-19.866 29.269 0 30h.741l24.332 138.183c2.322 13.185 13.179 22.754 25.816 22.754h156.198c12.634 0 23.491-9.567 25.816-22.75l24.353-138.187h.743c19.881-.738 19.866-29.269 0-30h-29.156c-.398-29.616 3.298-58.694 11.029-86.972l5.19 38.247c.738 5.446 4.397 10.053 9.535 12.005 5.096 1.944 10.922.953 15.101-2.643l84.752-72.787c4.17-3.58 6.047-9.156 4.893-14.529zm-285.429-114.587 6.853 56.13-46.761-22.773zm-75.654-38.378-4.331 51.831-45.526-25.151zm-11.341 144.729-42.898-36.842 49.892-14.698zm216.8 295.852h-149.46l-23.056-130.937h195.591zm105.876-359.081-45.525 25.151-4.331-51.83zm-125.51 11.7 39.907 33.355-46.76 22.773zm86.995 106.349-6.993-51.539 49.891 14.698z" />
</svg>