<svg enable-background="new 0 0 511.979 511.979" height="512" viewBox="0 0 511.979 511.979" width="512" xmlns="http://www.w3.org/2000/svg">
  <g>
    <g fill="#e490d0">
      <path d="m358.909 72.245c23.796 19.859 42.095 43.396 55.207 70.401.897 1.702-.862 3.796-2.693 3.207l-39.418-11.268c-.703-.201-1.459-.055-2.036.393l-32.386 25.137c-1.48 1.23-3.893-.06-3.693-1.974 2.112-29.946 10.33-58.604 25.019-85.896z" />
      <path d="m153.07 72.245c-23.796 19.859-42.095 43.396-55.207 70.401-.897 1.702.862 3.796 2.693 3.207l39.418-11.268c.703-.201 1.459-.055 2.036.393l32.386 25.137c1.48 1.23 3.893-.06 3.693-1.974-2.112-29.946-10.33-58.604-25.019-85.896z" />
      <path d="m362.845 75.989c-28.501 12.18-57.781 17.791-87.796 17.206-1.923.026-2.991-2.492-1.634-3.855l27.943-29.999c.498-.535.712-1.275.575-1.993l-7.684-40.27c-.423-1.877 1.821-3.441 3.436-2.394 25.719 15.484 47.517 35.822 65.16 61.305z" />
      <path d="m149.134 75.989c28.501 12.18 57.781 17.791 87.796 17.206 1.923.026 2.991-2.492 1.634-3.855l-27.943-29.999c-.498-.535-.712-1.275-.575-1.993l7.684-40.27c.423-1.877-1.821-3.441-3.436-2.394-25.719 15.484-47.517 35.822-65.16 61.305z" />
      <path d="m352.859 87.223c2.094-30.923 10.395-59.558 24.549-86.032.85-1.726 3.579-1.532 4.177.296l14.034 38.52c.25.687.813 1.213 1.515 1.417l39.366 11.445c1.865.476 2.238 3.185.572 4.148-25.476 15.881-53.496 26.063-84.213 30.206z" />
      <path d="m159.12 87.223c-2.094-30.923-10.395-59.558-24.549-86.032-.85-1.726-3.579-1.532-4.177.296l-14.034 38.52c-.25.687-.813 1.213-1.515 1.417l-39.366 11.445c-1.865.476-2.238 3.185-.572 4.148 25.476 15.881 53.496 26.063 84.213 30.206z" />
    </g>
    <g fill="#dd5ca2">
      <path d="m269.961 332.753c-3.974 0-7.407-2.977-7.881-7.021-9.268-79.118 17.137-144.376 40.92-185.188 25.723-44.142 53.349-69.391 54.513-70.445 3.251-2.942 8.277-2.694 11.221.559 2.944 3.251 2.696 8.273-.552 11.218-.27.244-27.245 24.97-51.726 67.139-22.426 38.63-47.326 100.326-38.593 174.868.51 4.358-2.609 8.305-6.966 8.816-.316.035-.627.054-.936.054z" />
      <path d="m242.018 332.753c3.974 0 7.407-2.977 7.881-7.021 9.268-79.118-17.137-144.376-40.92-185.188-25.723-44.142-53.349-69.39-54.512-70.444-3.251-2.942-8.277-2.694-11.221.559-2.944 3.251-2.696 8.273.552 11.218.27.244 27.245 24.97 51.726 67.139 22.426 38.63 47.326 100.326 38.593 174.868-.51 4.358 2.609 8.305 6.966 8.816.315.034.626.053.935.053z" />
    </g>
    <g fill="#dd5ca2">
      <path d="m269.98 330.292c-.47 0-.946-.041-1.423-.128-4.318-.781-7.184-4.915-6.403-9.232 16.746-92.556 69.781-118.129 72.03-119.173 3.98-1.846 8.703-.117 10.551 3.864 1.841 3.969.126 8.678-3.831 10.535-.262.126-12.159 5.963-25.737 21.887-12.663 14.852-29.428 41.779-37.378 85.715-.695 3.84-4.04 6.532-7.809 6.532z" />
      <path d="m241.999 330.292c.47 0 .946-.041 1.423-.128 4.318-.781 7.184-4.915 6.403-9.232-16.746-92.556-69.781-118.129-72.03-119.173-3.98-1.846-8.703-.117-10.551 3.864-1.841 3.969-.126 8.678 3.831 10.535.262.126 12.159 5.963 25.737 21.887 12.663 14.852 29.428 41.779 37.378 85.715.695 3.84 4.04 6.532 7.809 6.532z" />
    </g>
    <g>
      <g>
        <path d="m141.733 491.405c-.764-1.865-1.398-3.821-1.9-5.864-.828-3.368 1.729-6.627 5.197-6.627h221.918c3.469 0 6.025 3.259 5.197 6.627-.502 2.043-1.135 3.999-1.9 5.864-5.163 12.595-17.724 20.574-31.336 20.574h-165.84c-13.612 0-26.173-7.979-31.336-20.574z" fill="#9d6b6b" />
        <path d="m366.949 478.914h-25.113c3.469 0 6.025 3.259 5.197 6.627-.502 2.043-1.135 3.999-1.9 5.864-5.163 12.595-17.724 20.574-31.336 20.574h25.113c13.612 0 26.173-7.979 31.336-20.574.764-1.865 1.398-3.821 1.9-5.864.828-3.368-1.729-6.627-5.197-6.627z" fill="#8b5e5e" />
      </g>
      <path d="m174.704 478.914c-36.79-48.342-50.233-84.387-40.33-153.897.882-6.188 6.154-10.803 12.405-10.803h218.421c6.251 0 11.523 4.615 12.405 10.803 9.903 69.509-3.54 105.555-40.33 153.897z" fill="#c6865c" />
      <path d="m377.605 325.017c-.882-6.188-6.154-10.803-12.405-10.803h-26.6c6.251 0 11.523 4.615 12.405 10.803 9.903 69.509-3.54 105.555-40.33 153.897h26.6c36.789-48.342 50.233-84.387 40.33-153.897z" fill="#c17d4f" />
    </g>
    <path d="m416.282 301.328c-13.637 27.833-32.152 51.2-55.269 70.353-1.44 1.276-3.892.065-3.755-1.854l1.58-40.966c.028-.73-.293-1.43-.866-1.885l-32.112-25.487c-1.546-1.146-.867-3.795 1.04-4.056 29.591-5.063 59.381-3.889 89.382 3.895z" fill="#e490d0" />
    <path d="m95.697 301.328c13.637 27.833 32.152 51.2 55.269 70.353 1.44 1.276 3.892.065 3.755-1.854l-1.58-40.966c-.028-.73.293-1.43.866-1.885l32.112-25.487c1.546-1.146.867-3.795-1.04-4.056-29.591-5.063-59.381-3.889-89.382 3.895z" fill="#e490d0" />
    <path d="m410.656 308.738c-18.603-24.791-31.01-51.899-37.573-81.194-.483-1.862 1.71-3.497 3.357-2.503l35.779 20.015c.638.357 1.408.388 2.072.085l37.291-17.032c1.723-.857 3.775.952 3.142 2.769-8.93 28.662-23.506 54.668-44.068 77.86z" fill="#e490d0" />
    <path d="m101.323 308.738c18.603-24.791 31.01-51.899 37.573-81.194.483-1.862-1.71-3.497-3.357-2.503l-35.779 20.015c-.638.357-1.408.388-2.072.085l-37.291-17.031c-1.723-.857-3.775.952-3.142 2.769 8.93 28.661 23.506 54.667 44.068 77.859z" fill="#e490d0" />
    <path d="m405.689 301.328c30.536-5.313 60.322-4.053 89.401 3.405 1.878.416 2.339 3.112.705 4.128l-34.083 22.784c-.608.406-.985 1.078-1.017 1.808l-1.765 40.959c-.019 1.924-2.562 2.931-3.893 1.541-21.478-20.974-38.026-45.772-49.348-74.625z" fill="#e490d0" />
    <path d="m106.29 301.328c-30.536-5.313-60.322-4.053-89.401 3.405-1.878.416-2.339 3.112-.705 4.128l34.083 22.784c.608.406.985 1.078 1.017 1.808l1.765 40.959c.019 1.924 2.562 2.931 3.893 1.541 21.478-20.974 38.026-45.772 49.348-74.625z" fill="#e490d0" />
    <path d="m415.736 306.173c3.424-2.743 3.977-7.743 1.232-11.167l-18.12-22.615c-15.035-18.765-38.113-27.284-61.738-22.79-23.596 4.491-41.918 20.859-49.027 43.796l-6.876 20.817h16.734l5.253-15.904c.016-.05.032-.099.047-.149 5.327-17.256 19.099-29.574 36.84-32.95 17.734-3.369 35.074 3.023 46.367 17.115l18.12 22.615c2.744 3.423 7.743 3.978 11.168 1.232z" fill="#dd5ca2" />
    <path d="m125.53 282.327c11.293-14.093 28.633-20.485 46.367-17.115 17.741 3.377 31.513 15.694 36.84 32.95.014.05.031.099.047.149l5.253 15.904h16.735l-6.876-20.817c-7.109-22.936-25.431-39.305-49.027-43.796-23.624-4.495-46.702 4.024-61.738 22.79l-18.12 22.615c-2.744 3.424-2.192 8.424 1.232 11.167 3.425 2.746 8.424 2.191 11.167-1.232z" fill="#dd5ca2" />
  </g>
</svg>