<svg enable-background="new 0 0 512 512" height="512" viewBox="0 0 512 512" width="512" xmlns="http://www.w3.org/2000/svg">
  <style>
    path {
      fill: #000;
    }
    @media (prefers-color-scheme: dark) {
      path {
        fill: #EEE;
      }
    }
  </style>
  <path d="m512 334.667v-314.667c0-11.046-8.954-20-20-20h-472c-11.046 0-20 8.954-20 20v472c0 11.046 8.954 20 20 20h314.667c5.375 0 10.489-2.203 14.145-5.86l157.328-157.329c3.652-3.65 5.86-8.747 5.86-14.144zm-472-294.667h432v274.667h-137.333c-11.046 0-20 8.954-20 20v137.333h-274.667zm403.716 314.667-89.049 89.049v-89.049zm-325.716-177.334c0-11.046 8.954-20 20-20h236c11.046 0 20 8.954 20 20s-8.954 20-20 20h-236c-11.046 0-20-8.954-20-20zm20 98.667c-11.046 0-20-8.954-20-20s8.954-20 20-20h236c11.046 0 20 8.954 20 20s-8.954 20-20 20z" />
</svg>